<svg preserveAspectRatio="xMidYMid meet" data-bbox="51 51 98 98" viewBox="51 51 98 98" height="200" width="200" xmlns="http://www.w3.org/2000/svg" data-type="color" role="img">
    <g>
        <path d="M143.569 142.285h-45.24c-22.975-1.036-40.617-19.442-40.617-42.269 0-23.325 18.97-42.302 42.288-42.302 31.179 0 42.288 20.641 42.288 39.958 0 12.339-6.33 18.796-12.584 18.796-5.931 0-10.598-4.65-10.846-10.672.025-.164.05-.328.05-.499V86.322a3.356 3.356 0 1 0-6.712 0v1.36c-3.592-3.242-8.331-5.236-13.538-5.236-11.166 0-20.25 9.088-20.25 20.257s9.085 20.257 20.25 20.257c6.593 0 12.443-3.183 16.143-8.078 3.082 5.017 8.54 8.3 14.903 8.3 9.589 0 19.296-8.762 19.296-25.51C149 76.142 136.167 51 100 51c-27.018 0-49 21.989-49 49.016 0 26.467 20.697 47.982 47.118 48.981l.126.003h45.325a3.356 3.356 0 0 0 3.356-3.357 3.356 3.356 0 0 0-3.356-3.358zm-44.911-26.04c-7.465 0-13.538-6.075-13.538-13.543 0-7.467 6.073-13.543 13.538-13.543s13.538 6.075 13.538 13.543c0 7.468-6.074 13.543-13.538 13.543z" fill="#0E4828" data-color="1"></path>
    </g>
</svg>